<svg width="27" height="33" viewBox="0 0 27 33" fill="none" xmlns="http://www.w3.org/2000/svg">
<path d="M20.0771 7.98174C21.1353 8.05317 24.1663 8.37458 26.1391 11.2494C25.9777 11.3387 22.5163 13.3386 22.5522 17.517C22.606 22.5167 26.9462 24.1774 27 24.1952C26.9641 24.3202 26.3005 26.5701 24.7043 28.8914C23.3234 30.9092 21.8886 32.9091 19.6288 32.9448C17.4049 32.9983 16.6875 31.6413 14.1586 31.6413C11.6119 31.6413 10.8228 32.9091 8.72438 32.9983C6.53633 33.0698 4.88632 30.8199 3.4874 28.82C0.635757 24.713 -1.53436 17.2491 1.38902 12.1958C2.84175 9.67808 5.42437 8.08888 8.24014 8.05317C10.3744 7.9996 12.401 9.48167 13.7103 9.48167C15.0016 9.48167 17.3152 7.76747 20.0771 7.98174ZM18.3733 5.26759C17.2076 6.66038 15.3065 7.74961 13.4592 7.60676C13.2081 5.714 14.1407 3.73196 15.2168 2.49987C16.4184 1.10709 18.4271 0.071425 20.0951 0C20.3103 1.92847 19.5391 3.87481 18.3733 5.26759Z" fill="#1C1C1C"/>
</svg>
