<svg width="18" height="18" viewBox="0 0 18 18" fill="none" xmlns="http://www.w3.org/2000/svg">
<path d="M0 0H2V2H0V0ZM4 0H6V2H4V0ZM8 0H10V2H8V0ZM12 0H14V2H12V0ZM16 0H18V2H16V0ZM16 4H18V6H16V4ZM0 16H2V18H0V16ZM0 12H2V14H0V12ZM0 8H2V10H0V8ZM0 4H2V6H0V4ZM7.667 8L8.703 6.445C8.79435 6.30808 8.91808 6.19583 9.06322 6.11821C9.20835 6.04058 9.37041 5.99998 9.535 6H12.465C12.6296 5.99998 12.7916 6.04058 12.9368 6.11821C13.0819 6.19583 13.2057 6.30808 13.297 6.445L14.333 8H17C17.2652 8 17.5196 8.10536 17.7071 8.29289C17.8946 8.48043 18 8.73478 18 9V17C18 17.2652 17.8946 17.5196 17.7071 17.7071C17.5196 17.8946 17.2652 18 17 18H5C4.73478 18 4.48043 17.8946 4.29289 17.7071C4.10536 17.5196 4 17.2652 4 17V9C4 8.73478 4.10536 8.48043 4.29289 8.29289C4.48043 8.10536 4.73478 8 5 8H7.667ZM6 16H16V10H13.263L11.93 8H10.07L8.737 10H6V16ZM11 15C10.4696 15 9.96086 14.7893 9.58579 14.4142C9.21071 14.0391 9 13.5304 9 13C9 12.4696 9.21071 11.9609 9.58579 11.5858C9.96086 11.2107 10.4696 11 11 11C11.5304 11 12.0391 11.2107 12.4142 11.5858C12.7893 11.9609 13 12.4696 13 13C13 13.5304 12.7893 14.0391 12.4142 14.4142C12.0391 14.7893 11.5304 15 11 15Z" fill="#1D7BE9"/>
</svg>
