<svg width="20" height="20" viewBox="0 0 20 20" fill="none" xmlns="http://www.w3.org/2000/svg">
<path d="M7 2V8.273H5V2H3V11H17V2H7ZM18 13H2V15H18V13ZM1 11V1C1 0.734784 1.10536 0.48043 1.29289 0.292893C1.48043 0.105357 1.73478 0 2 0H18C18.2652 0 18.5196 0.105357 18.7071 0.292893C18.8946 0.48043 19 0.734784 19 1V11H20V16C20 16.2652 19.8946 16.5196 19.7071 16.7071C19.5196 16.8946 19.2652 17 19 17H11V20H9V17H1C0.734784 17 0.48043 16.8946 0.292893 16.7071C0.105357 16.5196 0 16.2652 0 16V11H1Z" fill="#1D7BE9"/>
</svg>
