<svg width="37" height="35" viewBox="0 0 37 35" fill="none" xmlns="http://www.w3.org/2000/svg">
<rect width="37" height="35" rx="8" fill="#1A1A1A"/>
<g clip-path="url(#clip0)">
<path d="M14.4991 31.0004C16.9826 31.0004 18.9982 28.9843 18.9982 26.5003V22.0002H14.4991C12.0156 22.0002 10 24.0163 10 26.5003C10 28.9843 12.0156 31.0004 14.4991 31.0004Z" fill="#5ECB89"/>
<path d="M10 17.5005C10 15.0165 12.0156 13.0005 14.4991 13.0005H18.9982V22.0004H14.4991C12.0156 22.0004 10 19.9845 10 17.5005Z" fill="#9664F6"/>
<path d="M10.0078 8.49976C10.0078 6.01576 12.0234 3.99976 14.5069 3.99976H19.006V12.9998H14.5069C12.0234 12.9998 10.0078 10.9838 10.0078 8.49976Z" fill="#E15A33"/>
<path d="M18.9961 3.99878H23.4952C25.9787 3.99878 27.9943 6.01478 27.9943 8.49878C27.9943 10.9828 25.9787 12.9988 23.4952 12.9988H18.9961V3.99878Z" fill="#EF7A69"/>
<path d="M27.9943 17.4997C27.9943 19.9837 25.9787 21.9997 23.4952 21.9997C21.0117 21.9997 18.9961 19.9837 18.9961 17.4997C18.9961 15.0157 21.0117 12.9998 23.4952 12.9998C25.9787 12.9998 27.9943 15.0157 27.9943 17.4997Z" fill="#52BBF8"/>
</g>
<defs>
<clipPath id="clip0">
<rect width="18" height="27" fill="white" transform="translate(10 4)"/>
</clipPath>
</defs>
</svg>
