<svg width="31" height="19" viewBox="0 0 31 19" fill="none" xmlns="http://www.w3.org/2000/svg">
<rect y="0.349121" width="10.5758" height="17.3058" rx="2" fill="white"/>
<path d="M11.5371 0.349121L15.3057 0.349121C16.4103 0.349121 17.3057 1.24455 17.3057 2.34912V15.6549C17.3057 16.7595 16.4103 17.6549 15.3057 17.6549H11.5371L11.5371 0.349121Z" fill="white" fill-opacity="0.3"/>
<path d="M18.2676 0.349121L22.0362 0.349121C23.1407 0.349121 24.0362 1.24455 24.0362 2.34912V15.6549C24.0362 16.7595 23.1407 17.6549 22.0362 17.6549H18.2676V0.349121Z" fill="white" fill-opacity="0.3"/>
<path d="M24.9971 0.349121L28.7657 0.349121C29.8702 0.349121 30.7657 1.24455 30.7657 2.34912V15.6549C30.7657 16.7595 29.8702 17.6549 28.7657 17.6549H24.9971V0.349121Z" fill="white" fill-opacity="0.3"/>
</svg>
