<svg width="147" height="60" viewBox="0 0 147 60" fill="none" xmlns="http://www.w3.org/2000/svg">
<path d="M2.70996 10.5833C3.55225 10.5833 4.22363 9.89966 4.22363 9.06958C4.22363 8.22729 3.55225 7.55591 2.70996 7.55591C1.86768 7.55591 1.18408 8.22729 1.18408 9.06958C1.18408 9.89966 1.86768 10.5833 2.70996 10.5833ZM1.3916 25.5002H4.02832V12.6584H1.3916V25.5002ZM7.04346 7.8855V25.5002H9.77783V19.4822H13.562C17.0166 19.4822 19.4458 17.114 19.4458 13.6716C19.4458 10.2415 17.0654 7.8855 13.6475 7.8855H7.04346ZM9.77783 10.1926H12.9272C15.2954 10.1926 16.6504 11.4622 16.6504 13.6838C16.6504 15.9055 15.2954 17.1873 12.915 17.1873H9.77783V10.1926ZM21.6187 25.5002H24.2554V18.0784C24.2554 16.052 25.4517 14.7092 27.4048 14.7092C29.2603 14.7092 30.2124 15.8445 30.2124 17.7366V25.5002H32.8613V17.2239C32.8613 14.3186 31.1768 12.4387 28.3569 12.4387C26.4038 12.4387 25 13.3054 24.292 14.8069H24.231V7.8855H21.6187V25.5002ZM40.9302 25.7444C44.6045 25.7444 47.0215 23.2175 47.0215 19.0793C47.0215 14.9534 44.5923 12.4265 40.9302 12.4265C37.2681 12.4265 34.8389 14.9534 34.8389 19.0793C34.8389 23.2175 37.2559 25.7444 40.9302 25.7444ZM40.9302 23.5715C38.8672 23.5715 37.5244 21.9358 37.5244 19.0793C37.5244 16.2351 38.8672 14.5994 40.9302 14.5994C42.9932 14.5994 44.3359 16.2351 44.3359 19.0793C44.3359 21.9358 43.0054 23.5715 40.9302 23.5715ZM49.0601 25.5002H51.6968V18.0173C51.6968 16.0276 52.8931 14.7092 54.7485 14.7092C56.5796 14.7092 57.4829 15.7712 57.4829 17.7V25.5002H60.1318V17.1873C60.1318 14.2454 58.5083 12.4387 55.6763 12.4387C53.6987 12.4387 52.3315 13.342 51.6357 14.8069H51.5747V12.6584H49.0601V25.5002ZM71.1914 21.7283C70.8374 22.8513 69.7266 23.6082 68.2251 23.6082C66.1133 23.6082 64.7705 22.1311 64.7705 19.8972V19.7385H73.8403V18.8352C73.8403 14.9412 71.6187 12.4265 68.0542 12.4265C64.4287 12.4265 62.1094 15.1121 62.1094 19.1404C62.1094 23.1931 64.3921 25.7444 68.1641 25.7444C71.106 25.7444 73.3276 24.072 73.6938 21.7283H71.1914ZM68.0542 14.5505C69.8975 14.5505 71.1426 15.9299 71.2036 17.8953H64.7827C64.917 15.9543 66.2109 14.5505 68.0542 14.5505Z" fill="#1C1C1C"/>
<path d="M102.624 7.8855V25.5002H105.358V19.4822H109.142C112.597 19.4822 115.026 17.114 115.026 13.6716C115.026 10.2415 112.646 7.8855 109.228 7.8855H102.624ZM105.358 10.1926H108.507C110.875 10.1926 112.23 11.4622 112.23 13.6838C112.23 15.9055 110.875 17.1873 108.495 17.1873H105.358V10.1926ZM117.199 25.5002H119.835V7.8855H117.199V25.5002ZM133.556 12.6584H130.919V20.1414C130.919 22.1433 129.772 23.4617 127.868 23.4617C126.049 23.4617 125.121 22.4119 125.121 20.4587V12.6584H122.484V20.9714C122.484 23.9133 124.193 25.7322 126.989 25.7322C128.954 25.7322 130.26 24.8655 130.968 23.3274H131.029V25.5002H133.556V12.6584ZM135.937 16.2961C135.937 18.1638 137.145 19.3357 139.586 19.8972L141.674 20.3855C143.078 20.7029 143.554 21.1912 143.554 22.0212C143.554 23.071 142.577 23.7302 140.99 23.7302C139.379 23.7302 138.463 23.071 138.219 21.7283H135.607C135.851 24.1697 137.78 25.7444 140.99 25.7444C144.018 25.7444 146.203 24.1331 146.203 21.7893C146.203 19.9338 145.202 18.9084 142.577 18.2981L140.49 17.822C139.098 17.5046 138.512 16.9553 138.512 16.1497C138.512 15.1243 139.464 14.4285 140.893 14.4285C142.37 14.4285 143.285 15.2097 143.432 16.4548H145.91C145.824 14.0867 143.883 12.4265 140.893 12.4265C137.938 12.4265 135.937 14.0012 135.937 16.2961Z" fill="#1C1C1C"/>
<rect x="79.75" y="8.25024" width="16.5" height="16.5" rx="4.25" stroke="#1C1C1C" stroke-width="1.5"/>
<path d="M87.709 20.6584C89.5781 20.6584 90.9082 19.6506 90.9082 18.2151C90.9082 17.1428 90.1465 16.2932 89.0332 16.0471V16.0178C89.9883 15.7366 90.5918 15.0217 90.5918 14.137C90.5918 12.8303 89.3906 11.887 87.709 11.887C86.0332 11.887 84.8145 12.8362 84.8145 14.1311C84.8145 15.0276 85.4297 15.7483 86.3848 16.0178V16.0471C85.2715 16.2874 84.5098 17.137 84.5098 18.2151C84.5098 19.6448 85.834 20.6584 87.709 20.6584ZM87.709 15.5784C86.7715 15.5784 86.1211 15.0276 86.1211 14.2542C86.1211 13.4749 86.7715 12.9299 87.709 12.9299C88.6406 12.9299 89.2969 13.4749 89.2969 14.2542C89.2969 15.0276 88.6348 15.5784 87.709 15.5784ZM87.709 19.6038C86.6309 19.6038 85.8633 18.9827 85.8633 18.1213C85.8633 17.2542 86.6309 16.6331 87.709 16.6331C88.7871 16.6331 89.5488 17.2483 89.5488 18.1213C89.5488 18.9827 88.7871 19.6038 87.709 19.6038Z" fill="#1C1C1C"/>
<path d="M52.9863 48.6716C54.9668 48.6716 56.3506 47.3704 56.3506 45.4978C56.3506 43.7458 55.0874 42.4763 53.3354 42.4763C52.4341 42.4763 51.6724 42.8254 51.2598 43.4412H51.228L51.5073 40.5403H55.8174V39.3406H50.3584L49.9077 44.6218H51.1519C51.5391 43.949 52.1929 43.5999 53.0117 43.5999C54.1543 43.5999 54.9604 44.406 54.9604 45.5359C54.9604 46.6785 54.1606 47.4846 52.999 47.4846C51.9771 47.4846 51.2026 46.8625 51.1011 45.9548H49.7427C49.8252 47.5544 51.1582 48.6716 52.9863 48.6716ZM58.4199 50.3855L59.2832 47.0339H57.8994L57.3281 50.3855H58.4199ZM64.2344 48.6716C66.2148 48.6716 67.5986 47.3704 67.5986 45.4978C67.5986 43.7458 66.3354 42.4763 64.5835 42.4763C63.6821 42.4763 62.9204 42.8254 62.5078 43.4412H62.4761L62.7554 40.5403H67.0654V39.3406H61.6064L61.1558 44.6218H62.3999C62.7871 43.949 63.4409 43.5999 64.2598 43.5999C65.4023 43.5999 66.2085 44.406 66.2085 45.5359C66.2085 46.6785 65.4087 47.4846 64.2471 47.4846C63.2251 47.4846 62.4507 46.8625 62.3491 45.9548H60.9907C61.0732 47.5544 62.4062 48.6716 64.2344 48.6716ZM72.0928 40.7434C72.5308 40.7434 72.8799 40.3879 72.8799 39.9563C72.8799 39.5183 72.5308 39.1692 72.0928 39.1692C71.6548 39.1692 71.2993 39.5183 71.2993 39.9563C71.2993 40.3879 71.6548 40.7434 72.0928 40.7434ZM71.4072 48.5002H72.7783V41.8225H71.4072V48.5002ZM74.1812 48.5002H75.5522V44.6091C75.5522 43.5745 76.1743 42.8889 77.1392 42.8889C78.0913 42.8889 78.561 43.4412 78.561 44.4441V48.5002H79.9385V44.1775C79.9385 42.6477 79.0942 41.7083 77.6216 41.7083C76.5933 41.7083 75.8823 42.178 75.5205 42.9397H75.4888V41.8225H74.1812V48.5002ZM86.9971 44.1204C86.8765 42.8064 85.8291 41.7019 84.1089 41.7019C82.2109 41.7019 80.9668 43.0413 80.9668 45.1614C80.9668 47.3196 82.2109 48.6272 84.1216 48.6272C85.7275 48.6272 86.8638 47.6624 87.0098 46.2405H85.6895C85.5308 47.0149 84.9785 47.4783 84.1343 47.4783C83.0679 47.4783 82.3633 46.6277 82.3633 45.1614C82.3633 43.7268 83.0615 42.8445 84.1216 42.8445C85.0166 42.8445 85.5498 43.4094 85.6895 44.1204H86.9971ZM88.0317 48.5002H89.4028V44.6409C89.4028 43.5872 90.0249 42.8889 91.0405 42.8889C92.0054 42.8889 92.5005 43.4792 92.5005 44.4631V48.5002H93.8779V44.1965C93.8779 42.6858 93.002 41.7083 91.5356 41.7083C90.52 41.7083 89.79 42.1589 89.4219 42.9397H89.3901V39.3406H88.0317V48.5002ZM96.2329 48.5701C96.6963 48.5701 97.0645 48.2019 97.0645 47.7385C97.0645 47.2751 96.6963 46.907 96.2329 46.907C95.7695 46.907 95.4014 47.2751 95.4014 47.7385C95.4014 48.2019 95.7695 48.5701 96.2329 48.5701Z" fill="#A5A5A5"/>
</svg>
