<svg width="97" height="60" viewBox="0 0 97 60" fill="none" xmlns="http://www.w3.org/2000/svg">
<path d="M2.70996 10.5833C3.55225 10.5833 4.22363 9.89966 4.22363 9.06958C4.22363 8.22729 3.55225 7.55591 2.70996 7.55591C1.86768 7.55591 1.18408 8.22729 1.18408 9.06958C1.18408 9.89966 1.86768 10.5833 2.70996 10.5833ZM1.3916 25.5002H4.02832V12.6584H1.3916V25.5002ZM7.04346 7.8855V25.5002H9.77783V19.4822H13.562C17.0166 19.4822 19.4458 17.114 19.4458 13.6716C19.4458 10.2415 17.0654 7.8855 13.6475 7.8855H7.04346ZM9.77783 10.1926H12.9272C15.2954 10.1926 16.6504 11.4622 16.6504 13.6838C16.6504 15.9055 15.2954 17.1873 12.915 17.1873H9.77783V10.1926ZM21.6187 25.5002H24.2554V18.0784C24.2554 16.052 25.4517 14.7092 27.4048 14.7092C29.2603 14.7092 30.2124 15.8445 30.2124 17.7366V25.5002H32.8613V17.2239C32.8613 14.3186 31.1768 12.4387 28.3569 12.4387C26.4038 12.4387 25 13.3054 24.292 14.8069H24.231V7.8855H21.6187V25.5002ZM40.9302 25.7444C44.6045 25.7444 47.0215 23.2175 47.0215 19.0793C47.0215 14.9534 44.5923 12.4265 40.9302 12.4265C37.2681 12.4265 34.8389 14.9534 34.8389 19.0793C34.8389 23.2175 37.2559 25.7444 40.9302 25.7444ZM40.9302 23.5715C38.8672 23.5715 37.5244 21.9358 37.5244 19.0793C37.5244 16.2351 38.8672 14.5994 40.9302 14.5994C42.9932 14.5994 44.3359 16.2351 44.3359 19.0793C44.3359 21.9358 43.0054 23.5715 40.9302 23.5715ZM49.0601 25.5002H51.6968V18.0173C51.6968 16.0276 52.8931 14.7092 54.7485 14.7092C56.5796 14.7092 57.4829 15.7712 57.4829 17.7V25.5002H60.1318V17.1873C60.1318 14.2454 58.5083 12.4387 55.6763 12.4387C53.6987 12.4387 52.3315 13.342 51.6357 14.8069H51.5747V12.6584H49.0601V25.5002ZM71.1914 21.7283C70.8374 22.8513 69.7266 23.6082 68.2251 23.6082C66.1133 23.6082 64.7705 22.1311 64.7705 19.8972V19.7385H73.8403V18.8352C73.8403 14.9412 71.6187 12.4265 68.0542 12.4265C64.4287 12.4265 62.1094 15.1121 62.1094 19.1404C62.1094 23.1931 64.3921 25.7444 68.1641 25.7444C71.106 25.7444 73.3276 24.072 73.6938 21.7283H71.1914ZM68.0542 14.5505C69.8975 14.5505 71.1426 15.9299 71.2036 17.8953H64.7827C64.917 15.9543 66.2109 14.5505 68.0542 14.5505Z" fill="#1C1C1C"/>
<rect x="79.75" y="8.25024" width="16.5" height="16.5" rx="4.25" stroke="#1C1C1C" stroke-width="1.5"/>
<path d="M86.125 20.5002H87.502L91.1758 13.1819V12.0452H85.4219V13.1526H89.8809V13.1819L86.125 20.5002Z" fill="#1C1C1C"/>
<path d="M29.0654 48.5002H30.4302V46.6785H31.6934V45.4851H30.4302V39.3406H28.3735C26.3169 42.324 25.2695 43.968 24.4824 45.4407V46.6785H29.0654V48.5002ZM25.8027 45.4661C26.5327 44.1648 27.4658 42.7175 29.0527 40.4451H29.0781V45.5042H25.8027V45.4661ZM33.7119 50.3855L34.5752 47.0339H33.1914L32.6201 50.3855H33.7119ZM36.2764 48.5002H37.7681L41.748 40.572V39.3406H35.5146V40.5403H40.3452V40.572L36.2764 48.5002ZM46.3438 40.7434C46.7817 40.7434 47.1309 40.3879 47.1309 39.9563C47.1309 39.5183 46.7817 39.1692 46.3438 39.1692C45.9058 39.1692 45.5503 39.5183 45.5503 39.9563C45.5503 40.3879 45.9058 40.7434 46.3438 40.7434ZM45.6582 48.5002H47.0293V41.8225H45.6582V48.5002ZM48.4321 48.5002H49.8032V44.6091C49.8032 43.5745 50.4253 42.8889 51.3901 42.8889C52.3423 42.8889 52.812 43.4412 52.812 44.4441V48.5002H54.1895V44.1775C54.1895 42.6477 53.3452 41.7083 51.8726 41.7083C50.8442 41.7083 50.1333 42.178 49.7715 42.9397H49.7397V41.8225H48.4321V48.5002ZM61.248 44.1204C61.1274 42.8064 60.0801 41.7019 58.3599 41.7019C56.4619 41.7019 55.2178 43.0413 55.2178 45.1614C55.2178 47.3196 56.4619 48.6272 58.3726 48.6272C59.9785 48.6272 61.1147 47.6624 61.2607 46.2405H59.9404C59.7817 47.0149 59.2295 47.4783 58.3853 47.4783C57.3188 47.4783 56.6143 46.6277 56.6143 45.1614C56.6143 43.7268 57.3125 42.8445 58.3726 42.8445C59.2676 42.8445 59.8008 43.4094 59.9404 44.1204H61.248ZM62.2827 48.5002H63.6538V44.6409C63.6538 43.5872 64.2759 42.8889 65.2915 42.8889C66.2563 42.8889 66.7515 43.4792 66.7515 44.4631V48.5002H68.1289V44.1965C68.1289 42.6858 67.2529 41.7083 65.7866 41.7083C64.771 41.7083 64.041 42.1589 63.6729 42.9397H63.6411V39.3406H62.2827V48.5002ZM70.4839 48.5701C70.9473 48.5701 71.3154 48.2019 71.3154 47.7385C71.3154 47.2751 70.9473 46.907 70.4839 46.907C70.0205 46.907 69.6523 47.2751 69.6523 47.7385C69.6523 48.2019 70.0205 48.5701 70.4839 48.5701Z" fill="#A5A5A5"/>
</svg>
