<svg width="96" height="60" viewBox="0 0 96 60" fill="none" xmlns="http://www.w3.org/2000/svg">
<path d="M2.70996 10.5833C3.55225 10.5833 4.22363 9.89966 4.22363 9.06958C4.22363 8.22729 3.55225 7.55591 2.70996 7.55591C1.86768 7.55591 1.18408 8.22729 1.18408 9.06958C1.18408 9.89966 1.86768 10.5833 2.70996 10.5833ZM1.3916 25.5002H4.02832V12.6584H1.3916V25.5002ZM7.04346 7.8855V25.5002H9.77783V19.4822H13.562C17.0166 19.4822 19.4458 17.114 19.4458 13.6716C19.4458 10.2415 17.0654 7.8855 13.6475 7.8855H7.04346ZM9.77783 10.1926H12.9272C15.2954 10.1926 16.6504 11.4622 16.6504 13.6838C16.6504 15.9055 15.2954 17.1873 12.915 17.1873H9.77783V10.1926ZM21.6187 25.5002H24.2554V18.0784C24.2554 16.052 25.4517 14.7092 27.4048 14.7092C29.2603 14.7092 30.2124 15.8445 30.2124 17.7366V25.5002H32.8613V17.2239C32.8613 14.3186 31.1768 12.4387 28.3569 12.4387C26.4038 12.4387 25 13.3054 24.292 14.8069H24.231V7.8855H21.6187V25.5002ZM40.9302 25.7444C44.6045 25.7444 47.0215 23.2175 47.0215 19.0793C47.0215 14.9534 44.5923 12.4265 40.9302 12.4265C37.2681 12.4265 34.8389 14.9534 34.8389 19.0793C34.8389 23.2175 37.2559 25.7444 40.9302 25.7444ZM40.9302 23.5715C38.8672 23.5715 37.5244 21.9358 37.5244 19.0793C37.5244 16.2351 38.8672 14.5994 40.9302 14.5994C42.9932 14.5994 44.3359 16.2351 44.3359 19.0793C44.3359 21.9358 43.0054 23.5715 40.9302 23.5715ZM49.0601 25.5002H51.6968V18.0173C51.6968 16.0276 52.8931 14.7092 54.7485 14.7092C56.5796 14.7092 57.4829 15.7712 57.4829 17.7V25.5002H60.1318V17.1873C60.1318 14.2454 58.5083 12.4387 55.6763 12.4387C53.6987 12.4387 52.3315 13.342 51.6357 14.8069H51.5747V12.6584H49.0601V25.5002ZM71.1914 21.7283C70.8374 22.8513 69.7266 23.6082 68.2251 23.6082C66.1133 23.6082 64.7705 22.1311 64.7705 19.8972V19.7385H73.8403V18.8352C73.8403 14.9412 71.6187 12.4265 68.0542 12.4265C64.4287 12.4265 62.1094 15.1121 62.1094 19.1404C62.1094 23.1931 64.3921 25.7444 68.1641 25.7444C71.106 25.7444 73.3276 24.072 73.6938 21.7283H71.1914ZM68.0542 14.5505C69.8975 14.5505 71.1426 15.9299 71.2036 17.8953H64.7827C64.917 15.9543 66.2109 14.5505 68.0542 14.5505ZM80.2002 25.5002H83.2275L87.6709 18.7864H87.7563L92.1387 25.5002H95.3369L89.4775 16.76V16.6868L95.4468 7.8855H92.3584L87.9639 14.697H87.8662L83.5205 7.8855H80.2612L86.0474 16.5891V16.6746L80.2002 25.5002Z" fill="#1C1C1C"/>
<path d="M26.9863 48.6716C28.9668 48.6716 30.3506 47.3704 30.3506 45.4978C30.3506 43.7458 29.0874 42.4763 27.3354 42.4763C26.4341 42.4763 25.6724 42.8254 25.2598 43.4412H25.228L25.5073 40.5403H29.8174V39.3406H24.3584L23.9077 44.6218H25.1519C25.5391 43.949 26.1929 43.5999 27.0117 43.5999C28.1543 43.5999 28.9604 44.406 28.9604 45.5359C28.9604 46.6785 28.1606 47.4846 26.999 47.4846C25.9771 47.4846 25.2026 46.8625 25.1011 45.9548H23.7427C23.8252 47.5544 25.1582 48.6716 26.9863 48.6716ZM32.4199 50.3855L33.2832 47.0339H31.8994L31.3281 50.3855H32.4199ZM38.2026 48.6716C40.2275 48.6716 41.6685 47.5798 41.6685 46.0247C41.6685 44.863 40.8433 43.9426 39.6372 43.676V43.6443C40.6719 43.3396 41.3257 42.5652 41.3257 41.6067C41.3257 40.1912 40.0244 39.1692 38.2026 39.1692C36.3872 39.1692 35.0669 40.1975 35.0669 41.6003C35.0669 42.5715 35.7334 43.3523 36.7681 43.6443V43.676C35.562 43.9363 34.7368 44.8567 34.7368 46.0247C34.7368 47.5735 36.1714 48.6716 38.2026 48.6716ZM38.2026 43.1682C37.187 43.1682 36.4824 42.5715 36.4824 41.7336C36.4824 40.8894 37.187 40.2991 38.2026 40.2991C39.2119 40.2991 39.9229 40.8894 39.9229 41.7336C39.9229 42.5715 39.2056 43.1682 38.2026 43.1682ZM38.2026 47.5291C37.0347 47.5291 36.2031 46.8562 36.2031 45.9231C36.2031 44.9836 37.0347 44.3108 38.2026 44.3108C39.3706 44.3108 40.1958 44.9773 40.1958 45.9231C40.1958 46.8562 39.3706 47.5291 38.2026 47.5291ZM46.2705 40.7434C46.7085 40.7434 47.0576 40.3879 47.0576 39.9563C47.0576 39.5183 46.7085 39.1692 46.2705 39.1692C45.8325 39.1692 45.4771 39.5183 45.4771 39.9563C45.4771 40.3879 45.8325 40.7434 46.2705 40.7434ZM45.585 48.5002H46.9561V41.8225H45.585V48.5002ZM48.3589 48.5002H49.73V44.6091C49.73 43.5745 50.3521 42.8889 51.3169 42.8889C52.269 42.8889 52.7388 43.4412 52.7388 44.4441V48.5002H54.1162V44.1775C54.1162 42.6477 53.272 41.7083 51.7993 41.7083C50.771 41.7083 50.0601 42.178 49.6982 42.9397H49.6665V41.8225H48.3589V48.5002ZM61.1748 44.1204C61.0542 42.8064 60.0068 41.7019 58.2866 41.7019C56.3887 41.7019 55.1445 43.0413 55.1445 45.1614C55.1445 47.3196 56.3887 48.6272 58.2993 48.6272C59.9053 48.6272 61.0415 47.6624 61.1875 46.2405H59.8672C59.7085 47.0149 59.1562 47.4783 58.312 47.4783C57.2456 47.4783 56.541 46.6277 56.541 45.1614C56.541 43.7268 57.2393 42.8445 58.2993 42.8445C59.1943 42.8445 59.7275 43.4094 59.8672 44.1204H61.1748ZM62.2095 48.5002H63.5806V44.6409C63.5806 43.5872 64.2026 42.8889 65.2183 42.8889C66.1831 42.8889 66.6782 43.4792 66.6782 44.4631V48.5002H68.0557V44.1965C68.0557 42.6858 67.1797 41.7083 65.7134 41.7083C64.6978 41.7083 63.9678 42.1589 63.5996 42.9397H63.5679V39.3406H62.2095V48.5002ZM70.4106 48.5701C70.874 48.5701 71.2422 48.2019 71.2422 47.7385C71.2422 47.2751 70.874 46.907 70.4106 46.907C69.9473 46.907 69.5791 47.2751 69.5791 47.7385C69.5791 48.2019 69.9473 48.5701 70.4106 48.5701Z" fill="#A5A5A5"/>
</svg>
