<svg width="97" height="60" viewBox="0 0 97 60" fill="none" xmlns="http://www.w3.org/2000/svg">
<path d="M2.70996 10.5833C3.55225 10.5833 4.22363 9.89966 4.22363 9.06958C4.22363 8.22729 3.55225 7.55591 2.70996 7.55591C1.86768 7.55591 1.18408 8.22729 1.18408 9.06958C1.18408 9.89966 1.86768 10.5833 2.70996 10.5833ZM1.3916 25.5002H4.02832V12.6584H1.3916V25.5002ZM7.04346 7.8855V25.5002H9.77783V19.4822H13.562C17.0166 19.4822 19.4458 17.114 19.4458 13.6716C19.4458 10.2415 17.0654 7.8855 13.6475 7.8855H7.04346ZM9.77783 10.1926H12.9272C15.2954 10.1926 16.6504 11.4622 16.6504 13.6838C16.6504 15.9055 15.2954 17.1873 12.915 17.1873H9.77783V10.1926ZM21.6187 25.5002H24.2554V18.0784C24.2554 16.052 25.4517 14.7092 27.4048 14.7092C29.2603 14.7092 30.2124 15.8445 30.2124 17.7366V25.5002H32.8613V17.2239C32.8613 14.3186 31.1768 12.4387 28.3569 12.4387C26.4038 12.4387 25 13.3054 24.292 14.8069H24.231V7.8855H21.6187V25.5002ZM40.9302 25.7444C44.6045 25.7444 47.0215 23.2175 47.0215 19.0793C47.0215 14.9534 44.5923 12.4265 40.9302 12.4265C37.2681 12.4265 34.8389 14.9534 34.8389 19.0793C34.8389 23.2175 37.2559 25.7444 40.9302 25.7444ZM40.9302 23.5715C38.8672 23.5715 37.5244 21.9358 37.5244 19.0793C37.5244 16.2351 38.8672 14.5994 40.9302 14.5994C42.9932 14.5994 44.3359 16.2351 44.3359 19.0793C44.3359 21.9358 43.0054 23.5715 40.9302 23.5715ZM49.0601 25.5002H51.6968V18.0173C51.6968 16.0276 52.8931 14.7092 54.7485 14.7092C56.5796 14.7092 57.4829 15.7712 57.4829 17.7V25.5002H60.1318V17.1873C60.1318 14.2454 58.5083 12.4387 55.6763 12.4387C53.6987 12.4387 52.3315 13.342 51.6357 14.8069H51.5747V12.6584H49.0601V25.5002ZM71.1914 21.7283C70.8374 22.8513 69.7266 23.6082 68.2251 23.6082C66.1133 23.6082 64.7705 22.1311 64.7705 19.8972V19.7385H73.8403V18.8352C73.8403 14.9412 71.6187 12.4265 68.0542 12.4265C64.4287 12.4265 62.1094 15.1121 62.1094 19.1404C62.1094 23.1931 64.3921 25.7444 68.1641 25.7444C71.106 25.7444 73.3276 24.072 73.6938 21.7283H71.1914ZM68.0542 14.5505C69.8975 14.5505 71.1426 15.9299 71.2036 17.8953H64.7827C64.917 15.9543 66.2109 14.5505 68.0542 14.5505Z" fill="#1C1C1C"/>
<rect x="79.75" y="8.25024" width="16.5" height="16.5" rx="4.25" stroke="#1C1C1C" stroke-width="1.5"/>
<path d="M87.6797 20.6584C89.5078 20.6584 90.7852 19.4573 90.7852 17.7288C90.7852 16.1116 89.6191 14.9397 88.002 14.9397C87.1699 14.9397 86.4668 15.262 86.0859 15.8303H86.0566L86.3145 13.1526H90.293V12.0452H85.2539L84.8379 16.9202H85.9863C86.3438 16.2991 86.9473 15.9768 87.7031 15.9768C88.7578 15.9768 89.502 16.7209 89.502 17.7639C89.502 18.8186 88.7637 19.5627 87.6914 19.5627C86.748 19.5627 86.0332 18.9885 85.9395 18.1506H84.6855C84.7617 19.6272 85.9922 20.6584 87.6797 20.6584Z" fill="#1C1C1C"/>
<path d="M38.0654 48.5002H39.4302V46.6785H40.6934V45.4851H39.4302V39.3406H37.3735C35.3169 42.324 34.2695 43.968 33.4824 45.4407V46.6785H38.0654V48.5002ZM34.8027 45.4661C35.5327 44.1648 36.4658 42.7175 38.0527 40.4451H38.0781V45.5042H34.8027V45.4661ZM45.1113 40.7434C45.5493 40.7434 45.8984 40.3879 45.8984 39.9563C45.8984 39.5183 45.5493 39.1692 45.1113 39.1692C44.6733 39.1692 44.3179 39.5183 44.3179 39.9563C44.3179 40.3879 44.6733 40.7434 45.1113 40.7434ZM44.4258 48.5002H45.7969V41.8225H44.4258V48.5002ZM47.1997 48.5002H48.5708V44.6091C48.5708 43.5745 49.1929 42.8889 50.1577 42.8889C51.1099 42.8889 51.5796 43.4412 51.5796 44.4441V48.5002H52.957V44.1775C52.957 42.6477 52.1128 41.7083 50.6401 41.7083C49.6118 41.7083 48.9009 42.178 48.5391 42.9397H48.5073V41.8225H47.1997V48.5002ZM60.0156 44.1204C59.895 42.8064 58.8477 41.7019 57.1274 41.7019C55.2295 41.7019 53.9854 43.0413 53.9854 45.1614C53.9854 47.3196 55.2295 48.6272 57.1401 48.6272C58.7461 48.6272 59.8823 47.6624 60.0283 46.2405H58.708C58.5493 47.0149 57.9971 47.4783 57.1528 47.4783C56.0864 47.4783 55.3818 46.6277 55.3818 45.1614C55.3818 43.7268 56.0801 42.8445 57.1401 42.8445C58.0352 42.8445 58.5684 43.4094 58.708 44.1204H60.0156ZM61.0503 48.5002H62.4214V44.6409C62.4214 43.5872 63.0435 42.8889 64.0591 42.8889C65.0239 42.8889 65.519 43.4792 65.519 44.4631V48.5002H66.8965V44.1965C66.8965 42.6858 66.0205 41.7083 64.5542 41.7083C63.5386 41.7083 62.8086 42.1589 62.4404 42.9397H62.4087V39.3406H61.0503V48.5002ZM69.2515 48.5701C69.7148 48.5701 70.083 48.2019 70.083 47.7385C70.083 47.2751 69.7148 46.907 69.2515 46.907C68.7881 46.907 68.4199 47.2751 68.4199 47.7385C68.4199 48.2019 68.7881 48.5701 69.2515 48.5701Z" fill="#A5A5A5"/>
</svg>
