<svg width="169" height="60" viewBox="0 0 169 60" fill="none" xmlns="http://www.w3.org/2000/svg">
<path d="M2.70996 10.5833C3.55225 10.5833 4.22363 9.89966 4.22363 9.06958C4.22363 8.22729 3.55225 7.55591 2.70996 7.55591C1.86768 7.55591 1.18408 8.22729 1.18408 9.06958C1.18408 9.89966 1.86768 10.5833 2.70996 10.5833ZM1.3916 25.5002H4.02832V12.6584H1.3916V25.5002ZM7.04346 7.8855V25.5002H9.77783V19.4822H13.562C17.0166 19.4822 19.4458 17.114 19.4458 13.6716C19.4458 10.2415 17.0654 7.8855 13.6475 7.8855H7.04346ZM9.77783 10.1926H12.9272C15.2954 10.1926 16.6504 11.4622 16.6504 13.6838C16.6504 15.9055 15.2954 17.1873 12.915 17.1873H9.77783V10.1926ZM21.6187 25.5002H24.2554V18.0784C24.2554 16.052 25.4517 14.7092 27.4048 14.7092C29.2603 14.7092 30.2124 15.8445 30.2124 17.7366V25.5002H32.8613V17.2239C32.8613 14.3186 31.1768 12.4387 28.3569 12.4387C26.4038 12.4387 25 13.3054 24.292 14.8069H24.231V7.8855H21.6187V25.5002ZM40.9302 25.7444C44.6045 25.7444 47.0215 23.2175 47.0215 19.0793C47.0215 14.9534 44.5923 12.4265 40.9302 12.4265C37.2681 12.4265 34.8389 14.9534 34.8389 19.0793C34.8389 23.2175 37.2559 25.7444 40.9302 25.7444ZM40.9302 23.5715C38.8672 23.5715 37.5244 21.9358 37.5244 19.0793C37.5244 16.2351 38.8672 14.5994 40.9302 14.5994C42.9932 14.5994 44.3359 16.2351 44.3359 19.0793C44.3359 21.9358 43.0054 23.5715 40.9302 23.5715ZM49.0601 25.5002H51.6968V18.0173C51.6968 16.0276 52.8931 14.7092 54.7485 14.7092C56.5796 14.7092 57.4829 15.7712 57.4829 17.7V25.5002H60.1318V17.1873C60.1318 14.2454 58.5083 12.4387 55.6763 12.4387C53.6987 12.4387 52.3315 13.342 51.6357 14.8069H51.5747V12.6584H49.0601V25.5002ZM71.1914 21.7283C70.8374 22.8513 69.7266 23.6082 68.2251 23.6082C66.1133 23.6082 64.7705 22.1311 64.7705 19.8972V19.7385H73.8403V18.8352C73.8403 14.9412 71.6187 12.4265 68.0542 12.4265C64.4287 12.4265 62.1094 15.1121 62.1094 19.1404C62.1094 23.1931 64.3921 25.7444 68.1641 25.7444C71.106 25.7444 73.3276 24.072 73.6938 21.7283H71.1914ZM68.0542 14.5505C69.8975 14.5505 71.1426 15.9299 71.2036 17.8953H64.7827C64.917 15.9543 66.2109 14.5505 68.0542 14.5505ZM80.2002 25.5002H83.2275L87.6709 18.7864H87.7563L92.1387 25.5002H95.3369L89.4775 16.76V16.6868L95.4468 7.8855H92.3584L87.9639 14.697H87.8662L83.5205 7.8855H80.2612L86.0474 16.5891V16.6746L80.2002 25.5002Z" fill="#1C1C1C"/>
<path d="M142.446 25.5002V7.8855H139.272L133.583 21.9236H133.486L127.785 7.8855H124.624V25.5002H127.114V12.5364H127.199L132.521 25.5002H134.548L139.858 12.5364H139.943V25.5002H142.446ZM148.793 25.72C150.478 25.72 152.102 24.8167 152.846 23.3884H152.907V25.5002H155.434V16.6501C155.434 14.0745 153.444 12.4265 150.332 12.4265C147.158 12.4265 145.18 14.1355 145.034 16.4548H147.524C147.756 15.3074 148.708 14.575 150.234 14.575C151.845 14.575 152.81 15.4294 152.81 16.8577V17.8464L149.294 18.054C146.242 18.2249 144.521 19.6042 144.521 21.8503C144.521 24.1575 146.279 25.72 148.793 25.72ZM149.526 23.6326C148.11 23.6326 147.182 22.9001 147.182 21.7771C147.182 20.6785 148.073 19.9827 149.648 19.8728L152.81 19.6775V20.6907C152.81 22.363 151.369 23.6326 149.526 23.6326ZM162.807 20.7761L165.639 25.5002H168.544L164.382 19.0061L168.593 12.6584H165.688L162.917 17.3093H162.868L160.061 12.6584H157.106L161.281 19.0916L157.045 25.5002H159.902L162.746 20.7761H162.807Z" fill="#1C1C1C"/>
<rect x="101.75" y="8.25024" width="16.5" height="16.5" rx="4.25" stroke="#1C1C1C" stroke-width="1.5"/>
<path d="M106.398 18.1799C106.48 19.6858 107.752 20.6409 109.662 20.6409C111.631 20.6409 112.885 19.6389 112.885 18.0452C112.885 16.8147 112.158 16.1057 110.389 15.7307L109.463 15.5374C108.367 15.303 107.934 14.8928 107.934 14.2776C107.934 13.5042 108.66 13.0237 109.65 13.0237C110.676 13.0237 111.373 13.5452 111.455 14.3948H112.727C112.686 12.9182 111.461 11.9045 109.668 11.9045C107.869 11.9045 106.598 12.9006 106.598 14.3479C106.598 15.5667 107.365 16.3518 109.059 16.7092L109.979 16.9026C111.109 17.1487 111.555 17.5588 111.555 18.2151C111.555 18.9709 110.787 19.5217 109.715 19.5217C108.59 19.5217 107.793 19.0178 107.676 18.1799H106.398Z" fill="#1C1C1C"/>
<path d="M64.1577 48.678C66.0938 48.678 67.5029 47.345 67.5029 45.5042C67.5029 43.7712 66.2397 42.489 64.4878 42.489C63.2437 42.489 62.3169 43.1365 61.9487 43.968H61.9233C61.9424 41.6892 62.7422 40.3562 64.1958 40.3562C65.0718 40.3562 65.7065 40.8005 65.9541 41.5623H67.3823C67.1094 40.1213 65.8462 39.1628 64.2085 39.1628C61.917 39.1628 60.5586 40.9783 60.5586 44.0442C60.5586 47.364 62.2915 48.678 64.1577 48.678ZM64.1387 47.4783C63.0532 47.4783 62.2026 46.615 62.2026 45.5232C62.2026 44.4377 63.0342 43.6443 64.1577 43.6443C65.2812 43.6443 66.0874 44.4441 66.0874 45.5549C66.0874 46.6277 65.2241 47.4783 64.1387 47.4783ZM69.5977 50.3855L70.4609 47.0339H69.0771L68.5059 50.3855H69.5977ZM75.4121 48.6716C77.3926 48.6716 78.7764 47.3704 78.7764 45.4978C78.7764 43.7458 77.5132 42.4763 75.7612 42.4763C74.8599 42.4763 74.0981 42.8254 73.6855 43.4412H73.6538L73.9331 40.5403H78.2432V39.3406H72.7842L72.3335 44.6218H73.5776C73.9648 43.949 74.6187 43.5999 75.4375 43.5999C76.5801 43.5999 77.3862 44.406 77.3862 45.5359C77.3862 46.6785 76.5864 47.4846 75.4248 47.4846C74.4028 47.4846 73.6284 46.8625 73.5269 45.9548H72.1685C72.251 47.5544 73.584 48.6716 75.4121 48.6716ZM83.2705 40.7434C83.7085 40.7434 84.0576 40.3879 84.0576 39.9563C84.0576 39.5183 83.7085 39.1692 83.2705 39.1692C82.8325 39.1692 82.4771 39.5183 82.4771 39.9563C82.4771 40.3879 82.8325 40.7434 83.2705 40.7434ZM82.585 48.5002H83.9561V41.8225H82.585V48.5002ZM85.3589 48.5002H86.73V44.6091C86.73 43.5745 87.3521 42.8889 88.3169 42.8889C89.269 42.8889 89.7388 43.4412 89.7388 44.4441V48.5002H91.1162V44.1775C91.1162 42.6477 90.272 41.7083 88.7993 41.7083C87.771 41.7083 87.0601 42.178 86.6982 42.9397H86.6665V41.8225H85.3589V48.5002ZM98.1748 44.1204C98.0542 42.8064 97.0068 41.7019 95.2866 41.7019C93.3887 41.7019 92.1445 43.0413 92.1445 45.1614C92.1445 47.3196 93.3887 48.6272 95.2993 48.6272C96.9053 48.6272 98.0415 47.6624 98.1875 46.2405H96.8672C96.7085 47.0149 96.1562 47.4783 95.312 47.4783C94.2456 47.4783 93.541 46.6277 93.541 45.1614C93.541 43.7268 94.2393 42.8445 95.2993 42.8445C96.1943 42.8445 96.7275 43.4094 96.8672 44.1204H98.1748ZM99.2095 48.5002H100.581V44.6409C100.581 43.5872 101.203 42.8889 102.218 42.8889C103.183 42.8889 103.678 43.4792 103.678 44.4631V48.5002H105.056V44.1965C105.056 42.6858 104.18 41.7083 102.713 41.7083C101.698 41.7083 100.968 42.1589 100.6 42.9397H100.568V39.3406H99.2095V48.5002ZM107.411 48.5701C107.874 48.5701 108.242 48.2019 108.242 47.7385C108.242 47.2751 107.874 46.907 107.411 46.907C106.947 46.907 106.579 47.2751 106.579 47.7385C106.579 48.2019 106.947 48.5701 107.411 48.5701Z" fill="#A5A5A5"/>
</svg>
