<svg width="39" height="35" viewBox="0 0 39 35" fill="none" xmlns="http://www.w3.org/2000/svg">
<path fill-rule="evenodd" clip-rule="evenodd" d="M8.29744 1.15519L19.0049 0.00292969L29.7123 1.15519L38.0019 12.4825L19.0049 35.0003L0.0078125 12.4825L8.29744 1.15519Z" fill="#FDB300"/>
<path fill-rule="evenodd" clip-rule="evenodd" d="M7.69595 12.4807L18.9986 34.9992L0.000976562 12.4807H7.69595Z" fill="#EA6C00"/>
<path fill-rule="evenodd" clip-rule="evenodd" d="M30.2953 12.4795L18.9927 34.9979L37.9902 12.4795H30.2953Z" fill="#EA6C00"/>
<path fill-rule="evenodd" clip-rule="evenodd" d="M7.69141 12.4797H30.2966L18.994 34.9982L7.69141 12.4797Z" fill="#FDAD00"/>
<path fill-rule="evenodd" clip-rule="evenodd" d="M18.9979 0L8.29016 1.15227L7.69531 12.4798L18.9979 0Z" fill="#FDD231"/>
<path fill-rule="evenodd" clip-rule="evenodd" d="M18.9982 0L29.7059 1.15227L30.3008 12.4798L18.9982 0Z" fill="#FDD231"/>
<path fill-rule="evenodd" clip-rule="evenodd" d="M37.9951 12.48L29.7053 1.15234L30.3002 12.48H37.9951Z" fill="#FDAD00"/>
<path fill-rule="evenodd" clip-rule="evenodd" d="M0 12.4794L8.28978 1.15186L7.69494 12.4794H0Z" fill="#FDAD00"/>
<path fill-rule="evenodd" clip-rule="evenodd" d="M18.998 0L7.69531 12.4798H30.3007L18.998 0Z" fill="#FEEEB7"/>
</svg>
